# xmcd
#
# Track frame offsets: 
#        150
#        13782
#        23805
#        31697
#        48902
#        59086
#        71415
#        86238
#        104509
#        116629
#        129766
#        146839
#        160471
#        170494
#        178386
#        195591
#        205775
#        218104
#        232927
#        251198
#        263318
#        276455
#
# Disc length: 3913 seconds
#
# Revision: 0
# Processed by: cddbd v1.5.2PL0 Copyright (c) Steve Scherf et al.
# Submitted via: ExactAudioCopy v1.1
#
DISCID=440f4716
DTITLE=Martha Bass - I'm So Grateful
DYEAR=1966
DGENRE=Soul
TTITLE0=I'm Getting Nearer To My Home (Stereo)
TTITLE1=Mother's Plea (Stereo)
TTITLE2=Everbody Will Be Happy (Stereo)
TTITLE3=I Do, Don't You (Stereo)
TTITLE4=He's Sweeter As The Days Roll By (Stereo)
TTITLE5=There's A Fountain (Stereo)
TTITLE6=Jesus Gave Me (Stereo)
TTITLE7=I'm So Grateful (Stereo)
TTITLE8=What Manner Of Man Is This (Stereo)
TTITLE9=It Pays To Serve Jesus (Stereo)
TTITLE10=Be Still (Stereo)
TTITLE11=I'm Getting Nearer To My Home (Mono)
TTITLE12=Mother's Plea (Mono)
TTITLE13=Everybody Will Be Happy (Mono)
TTITLE14=I Do, Don't You (Mono)
TTITLE15=He's Sweeter As The Days Roll By (Mono)
TTITLE16=There's A Fountain (Mono)
TTITLE17=Jesus Gave Me (Mono)
TTITLE18=I'm So Grateful (Mono)
TTITLE19=What Manner Of Man Is This (Mono)
TTITLE20=It Pays To Serve Jesus (Mono)
TTITLE21=Be Still (Mono)
EXTD=
EXTT0=
EXTT1=
EXTT2=
EXTT3=
EXTT4=
EXTT5=
EXTT6=
EXTT7=
EXTT8=
EXTT9=
EXTT10=
EXTT11=
EXTT12=
EXTT13=
EXTT14=
EXTT15=
EXTT16=
EXTT17=
EXTT18=
EXTT19=
EXTT20=
EXTT21=
PLAYORDER=
